<?xml version="1.0" encoding="utf-8"?>
<!-- Generator: Adobe Illustrator 21.0.0, SVG Export Plug-In . SVG Version: 6.00 Build 0)  -->
<svg version="1.1" id="Layer_1" xmlns="http://www.w3.org/2000/svg" xmlns:xlink="http://www.w3.org/1999/xlink" x="0px" y="0px"
	 viewBox="0 0 400 400" style="enable-background:new 0 0 400 400;" xml:space="preserve">
<style type="text/css">
	.st0{fill:#FFB81C;}
	.st1{fill:#6F263D;}
	.st2{fill:#041E42;}
	.st3{fill:#FFFFFF;}
</style>
<g>
	<path class="st0" d="M192.3,362.2c-1.1-0.6-27.2-15.8-53.3-46.5c-24.2-28.4-52.9-76.2-52.9-142.4c0-1.9,0-4.1,0-6.7
		c0-1.1,0-3.6,0-3.6v-4.7c0.1-13.8,0.6-40.7,1.7-58.7c0.2-3.7,0.5-6.9,0.7-9.4l0.6-5.8l4.6-3.6c4.4-3.4,10-6.9,16.9-10.4
		c4.8-2.5,10.3-5,16.3-7.6c30.9-14.7,68.1-27.6,68.5-27.7l3.6-1.3l3.6,1.2c0.4,0.1,42.1,14.4,73.9,30.1c7.9,3.5,14.7,7,20.2,10.4
		c2.9,1.8,5.4,3.5,7.6,5.2l4.6,3.6l0.6,5.8c0.1,1.2,0.2,2.6,0.4,4.2c1.3,17.1,2,48.3,2.1,63.9v5.6v2.8c0,2.5,0,4.7,0,6.7
		c0,66.2-28.8,114-52.9,142.4c-26.2,30.8-52.2,45.8-53.3,46.5L199,366L192.3,362.2z"/>
	<path class="st1" d="M199,36.1l1.1,0.4l1.8,0.6c0.4,0.1,42.2,14.5,73.6,30c7.9,3.5,14.6,7,20,10.3c2.8,1.7,5.3,3.4,7.5,5.1l2.7,2.1
		l1.2,0.9L307,87l0.3,3.4c0.1,1.2,0.2,2.5,0.4,4.1c1.3,17,2,48.1,2.1,63.8c0,1.6,0,3.2,0,4.5v1.1c0,0.8,0,1.6,0,2.3v0.4
		c0,2.5,0,4.8,0,6.7c0,65.6-28.5,112.9-52.4,141c-25.8,30.4-51.7,45.4-52.7,46l-3.9,2.2l-1.7,1l-1.7-1l-3.9-2.2
		c-1.1-0.6-26.9-15.6-52.7-46c-23.9-28.1-52.4-75.5-52.4-141c0-1.9,0-4.1,0-6.7v-0.4c0-0.8,0-1.6,0-2.4v-0.9v-0.2c0-1.4,0-2.9,0-4.5
		c0.1-13.8,0.6-40.7,1.7-58.6c0.2-3.7,0.5-6.8,0.7-9.3L91,87l0.2-1.5l1.2-0.9l2.7-2.1c4.3-3.3,9.8-6.7,16.5-10.2
		c4.7-2.4,10.2-5,16.2-7.5c30.8-14.6,67.9-27.5,68.3-27.7l1.8-0.6L199,36.1 M199,31.6l-1.4,0.5l-1.1,0.4l-1.8,0.6
		c-0.3,0.1-37.9,13.2-68.7,27.8c-5.9,2.5-11.5,5.1-16.3,7.6c-6.9,3.6-12.7,7.1-17.2,10.6l-2.7,2.1l-1.2,0.9l-1.4,1.1L87,85l-0.2,1.5
		l-0.3,3.4c-0.3,2.6-0.5,5.8-0.7,9.5c-1.1,18-1.6,45-1.7,58.8c0,1.6,0,3.2,0,4.5l0,0v0.2v0.8c0,0.8,0,1.7,0,2.5v0.4
		c0,2.5,0,4.7,0,6.6c0,66.9,29.1,115.1,53.4,143.8c26.3,31,52.8,46.3,53.9,46.9l3.9,2.2l1.7,1l2.1,1.2l2.1-1.2l1.7-1l3.9-2.2
		c1.1-0.6,27.5-15.9,53.9-46.9c24.4-28.7,53.4-76.9,53.4-143.8c0-1.9,0-4.2,0-6.7v-0.3v-0.3c0-0.7,0-1.4,0-2.1v-1.1
		c0-1.4,0-2.9,0-4.5c-0.1-15.7-0.8-47-2.1-64.1c-0.1-1.6-0.3-3-0.4-4.2l-0.3-3.4l-0.2-1.5l-0.2-1.8l-1.4-1.1l-1.2-0.9l-2.7-2.1
		c-2.3-1.8-4.9-3.6-7.8-5.4c-5.6-3.4-12.5-7-20.5-10.6c-31.3-15.4-72.2-29.5-74-30.1l-1.8-0.6l-1.1-0.4L199,31.6z"/>
	<path d="M306.2,163.8c0,0.8,0,1.5,0,2.3v0.5c0,2.5,0,4.8,0,6.7c0,64.5-28.1,111.1-51.6,138.8c-25.5,30-50.8,44.6-51.8,45.2
		l-3.9,2.2l-3.9-2.2c-1.1-0.6-26.4-15.3-51.8-45.2c-23.5-27.7-51.6-74.3-51.6-138.8c0-1.9,0-4.2,0-6.7v-0.4c0-0.8,0-1.6,0-2.3V163
		v-0.1c0-1.3,0-2.9,0-4.5c0.1-13.7,0.6-40.6,1.7-58.4c0.2-3.6,0.5-6.7,0.7-9.2l0.3-3.4l2.7-2.1c4.1-3.2,9.5-6.5,16-9.9
		c4.7-2.4,10.1-4.9,16-7.5c30.5-14.5,67.7-27.4,68-27.6l1.8-0.6l1.8,0.6c0.4,0.1,41.9,14.4,73.2,29.8c7.7,3.5,14.4,6.9,19.7,10.1
		c2.7,1.6,5.1,3.3,7.1,4.9l2.7,2.1l0.3,3.4c0.1,1.2,0.2,2.6,0.4,4.1c1.3,16.9,2,47.9,2.1,63.5c0,1.6,0,3.1,0,4.5v1.1H306.2z"/>
	<path class="st0" d="M187.3,221c1-1.1,2.2-2.2,3.4-3.3l-0.1,14.5l0,0l-0.2,20.5c-12.1,3.7-17.8,4.3-21.9,3.3l-0.5-0.2
		c-1.2-0.5-1.4-1.5-1.4-1.8C166.3,246,180.3,228.6,187.3,221 M212.1,224.1c-0.2,0.4,44.5-25.7,44.5-25.7v-8.9l-2.2-2.2
		c-12-11.4-29.9-11.5-48-6.6V87.6c0-6.1,0.1-12-0.4-17.4c-0.5-5.5-1.6-10.9-4-15.8l-3-6.2l-2.9,6.3c-2.4,5.3-3.5,10.8-4.1,16.4
		c-0.5,5.5-0.5,11.4-0.6,17.5L191,186c-18.7,7.7-35.9,18.9-45,26.5l-10.1,15.6l12.5-3.1c-19.2,24.1-12.4,39.9-11.6,41.6
		c2,5.7,6.7,10.2,14.1,13.2c5.7,2.3,12.1,2.6,17.7,2.3c6.9-0.3,14.2-1.9,21.5-4.2v3.1c-6.3,3.4-11.3,9.4-14,16.6
		c-1,2.8-1.7,5.8-1.8,8.9c0,0.5,0,2.2-0.2,4.6c-0.2,2.2-0.5,5-1.3,7.7l-0.5,1.6l-1.6,3.9c0.2,0.7,4.6-0.8,6.6-1.6
		c0.3-0.1,0.8-0.3,1.4-0.6c1.1-0.6,2.5-1.6,4.2-3.2c1-1,2-2.1,2.7-3.2c0.8-1,1.4-2,2.1-2.9c0.9-1.2,1.7-2.4,2.5-3.6l0.1,10.4v6.9
		v1.8c-0.3,0.4-0.7,1-1.1,1.7c-0.9,1.7-3.2,7.2-3.4,10.3c-0.1,0.7,2.1,0.6,5.3,0.5c0.4,0,1.1-0.1,1.8-0.2c1.5-0.2,3.4-0.6,5.4-1.2
		c3.6-1.1,9.3-3.7,10.1-9.4l0.3-2.1l-0.6-0.4c7.6-6.7,9.7-14,9.4-20c-0.1-2.1-0.5-4-0.9-5.6l2.7,0.5l3.2,0.6l0.6-3.2
		c1.9-11-4.3-20.2-16.8-22v-6.4c12.2-5.8,23.7-13.4,32.7-21.3l0.4-0.4l3.6-18.3l-7.1,3.9c-11.4,5-21.8,9-29.7,11.8v-41.4
		c2.2-1.3,4.4-2.4,6.5-3.3c5.8-2.5,9.6-3.4,11.4-3.2c-0.5,1.5-1.3,3.4-2.4,5.6C221.8,205,212.5,223.4,212.1,224.1"/>
	<path class="st2" d="M253.9,197l-0.1-5.8l-29.3,17.9c-0.2,0.5-4,7.9-4.4,8.3L253.9,197z"/>
	<path class="st2" d="M143.8,223.1c3.2-0.8,6.8-1.7,10.4-2.5c2-2.4,4-4.5,5.8-6.3c-3.7,0.8-7.7,1.8-11.7,2.7
		C147.6,218,144.3,222.5,143.8,223.1"/>
	<path class="st2" d="M203.4,264.3c-1.5,0.7-3.1,1.4-4.6,2.1c-1,0.4-2,0.9-2.9,1.3c-0.7,0.3-1.4,0.5-2,0.8c-9.3,3.6-18.6,6-27.3,6.4
		c-5.4,0.2-11.3-0.1-16.3-2.1c-4.6-1.8-7.9-4.3-10-7c1.6,4.6,5.4,8.6,12.3,11.4c5,2,10.9,2.3,16.3,2.1c8-0.4,16.5-2.4,25-5.5
		c0.7-0.2,1.4-0.5,2-0.7c1-0.4,2-0.8,2.9-1.2c1.5-0.6,3.1-1.3,4.6-2c12.6-5.8,24.5-13.6,33.9-21.7l1.7-8
		C229.7,248.9,217,257.7,203.4,264.3"/>
	<path class="st1" d="M203.4,196.4c14-7.7,32.9-11.7,21.6,10.3l27.4-16.8c-11.8-11.2-30.4-10.4-49-4.6v0.7V196.4z"/>
	<path class="st1" d="M203.4,252.2c-1.7,0.6-3.2,1.1-4.6,1.6c-1.1,0.4-2.1,0.7-2.9,1c-0.8,0.3-1.5,0.5-2,0.6
		c-0.7,0.2-1.1,0.3-1.1,0.3c-51.5,16-35-17.4-11.5-42.5c2-2.2,7.3-7.1,13-11.3l0.1-13.5c-18.6,7.3-36.3,18.6-46,26.6
		c5.9-1.6,11.9-2.9,17.8-4.3c-51.1,48.9-21.5,74.7,27.5,55.1c0.7-0.3,1.3-0.6,2-0.9c1-0.4,1.9-0.8,2.9-1.3c1.5-0.7,3.1-1.4,4.6-2.2
		c11-5.4,22.6-13,34.3-22.9C223.9,244.8,211.6,249.4,203.4,252.2"/>
	<path class="st2" d="M209.6,195.5c-1.9,0.8-3.9,1.8-6.2,3.2v-2.3V186v-0.7V87.8c0.1-12,0.3-22.9-4-31.7c-4.4,9.7-4.3,20.6-4.4,32.6
		l-0.5,99.8l-0.1,13.5v0.3v2.3c-4.3,3.2-8.3,6.8-11.5,10.2c-6.6,7.1-21.9,25.7-21.6,35.4c0.1,2.5,1,4.3,2.4,5.5
		c-0.1-0.4-0.1-0.8-0.1-1.2c-0.2-9.7,15-28.3,21.7-35.4c2.6-2.8,5.7-5.6,9.1-8.3l-0.2,19l0,0L194,252c0.5-0.2,1.2-0.4,2-0.6
		l0.1-23.2l0,0l0.1-18.8v-6.1v-2.5l0.1-12.8l0.2-32.9l0.1-82.5c0.5,0.9,2.3,4.4,2.4,17l-0.1,97.5v12v2.4v6v18.4l0,0l0,0l-0.1,24.5
		c1.4-0.5,2.9-1,4.6-1.6V222l0,0v-17.6c3.2-1.9,5.9-3.4,8.5-4.5c6.1-2.6,11.3-4.2,14.1-3.3C226.5,189.8,219.1,191.5,209.6,195.5"/>
	<polygon class="st0" points="198.8,225.8 198.8,225.8 198.9,225.8 198.9,225.8 	"/>
	<polygon class="st0" points="198.8,225.8 198.8,225.8 198.9,225.8 	"/>
	<path class="st2" d="M217.8,296.7c-10.9-3-23.7-0.3-29.5,6.7c-2.4,2.9-4.6,7.2-8.8,11.5c0.9-5.3,0.9-7,1-8.9
		c0.7-8.4,5.1-15.5,13.9-19.8c0,0.3,0.1,0.7,0.3,1c0.4,0.6,1,1,1.9,1.2c0.8,0.1-0.5-0.2,0,0c0.1,0,0.3,0.1,0.4,0.1h0.1
		c0.1,0,0.2,0,0.4,0h0.1c0.1,0,0.2,0,0.3,0h0.1c0.1,0,0.3,0,0.5,0c0.1,0,0.3,0,0.4-0.1c0,0,0,0,0.1,0s0.3,0,0.4-0.1l0,0
		c0.3-0.1,0.5-0.2,0.8-0.3c0.9-0.3,1.7-0.8,2-1.4l0,0c0.1-0.1,0.2-0.3,0.2-0.4c3.2,0.7,5.9,2.3,7.1,4.2c-5.7-0.3-13.9,1.6-20.7,9.5
		c9.4-7.4,20.1-7.5,27-5.7c0.2-4.1-5.4-8.5-8.5-10.2C212.9,286,218.9,290.9,217.8,296.7 M208.9,319.8c2.9-6.1,3.7-16.7-2.9-21.5h2.3
		C214.9,303.7,211.9,317.4,208.9,319.8 M201.4,325.4c6.1-14.6,1.6-25.5,1.7-25.7C210.6,300.8,213.1,317.1,201.4,325.4 M198.1,328.4
		c0,1.2-2.5,1.2-2.5,0.3l0.1-28.1c0.2-0.2,1.9-1,2.6-1.1L198.1,328.4z M203.4,281.1v-7.8c-1.5,0.7-3.1,1.3-4.6,2v8.1
		c0,1.9-3.1,2.2-3,0.8v-7.7c-0.7,0.3-1.4,0.5-2.1,0.7l-0.1,6.1l-0.4,0.3c-6.1,2.9-11.2,8.5-13.7,15.2c0,0.1-0.1,0.2-0.1,0.3
		c-0.9,2.5-1.5,5.2-1.6,7.9c-0.1,1,0.1,7-1.7,13c0,0,1.6-0.2,4.7-3.2c1.7-1.6,3.2-4,4.5-5.6c2.8-3.9,5.1-7.8,8.4-9.5v3.5
		c0,6.6,0.1,24.5,0.1,24.6s-2.8,3.1-3.2,8.2c0,0.2,13.9-0.8,14.8-8c0,0-2.7-1.8-2.6-1.8c19.5-13.6,8.7-29.8,8.7-29.8
		c4.7,0.7,7.4,1.1,8.6,1.4C221.9,289.8,216,281.7,203.4,281.1"/>
	<path d="M301.7,191.3c0,0-86.3-49.1-206.5,0c-0.7-10.9,7.2-104,7.2-104h195.5L301.7,191.3z"/>
	<path class="st3" d="M264.4,121.9h-5.6h-7.1c0.2,1.1,0.3,1.7,0.5,2.8c0,3.7,0,7.5,0,11.2c0,1.1,0,1.7,0,2.8c0,9.3,0,18.6,0.1,28
		c2.6,0.2,4,0.3,6.6,0.6c0.4,0,0.6,0.1,0.9,0.1c0-3.8,0-5.7,0-9.5c0-3.4,0-5.1,0-8.5c0.8-0.5,1.2-0.7,2-1.2c1.9,2.9,2.8,4.4,4.7,7.3
		c0,4.2,0,8.3,0,12.5c3,0.3,4.5,0.5,7.5,0.8c0-5.2,0-10.4,0-15.6c-2.1-2.9-4.1-5.8-6.2-8.7c2.5-1.6,3.7-2.4,6.2-4
		c0-3.9,0-7.8,0-11.7c-2.6-2.8-4-4.1-6.6-6.8h-3V121.9z M259.7,139.8c0-0.4,0-0.6,0-0.9c0-1.1,0-1.7,0-2.8v-6.6c0.4,0,0.6,0,0.9,0
		c1.9,0,2.8,0,4.7,0.1c0.4,0.4,0.6,0.6,0.9,1c0,2.3,0,3.5,0,5.8c0,0.4,0,0.6,0,1c-2.6,1.8-3.9,2.7-6.6,4.5
		C259.7,141,259.7,140.6,259.7,139.8"/>
	<path class="st3" d="M248.9,129.3c0-3,0-4.4,0-7.4h-10.4h-7.1c0.2,1.1,0.3,1.6,0.5,2.7c0,13.6,0.1,27.1,0.1,40.7
		c5.7,0.3,11.3,0.7,17,1.1c0-3,0-4.4,0-7.4c-3.8-0.2-5.7-0.3-9.4-0.5c0-4.4,0-8.8,0-13.2c3,0.1,4.5,0.2,7.5,0.3c0-2.6,0-3.9,0-6.5
		c-3-0.1-4.5-0.1-7.5-0.2c0-3.8,0-5.8,0-9.6C243.2,129.2,245.1,129.2,248.9,129.3"/>
	<path class="st3" d="M219.2,121.9c0.2,1.1,0.3,1.6,0.5,2.7c0,4.8,0,9.5,0,14.3c0,1.1,0,1.6,0,2.7c0,7.8,0,15.5,0,23.3
		c3,0.1,4.5,0.1,7.5,0.3c0-2.9,0-4.3,0-7.2c0-5.4,0-10.8,0-16.2c0-1.1,0-1.6,0-2.7c0-4.8,0-9.6,0-14.4c0.2-1.1,0.3-1.6,0.4-2.7h-8.4
		V121.9z"/>
	<path class="st3" d="M149.4,166.5c-2.2-14.9-4.4-29.7-6.5-44.6h-12.3c0.2,1.2,0.3,1.7,0.5,2.9c-2.1,14.7-4.2,29.4-6.2,44.1
		c3-0.3,4.5-0.5,7.5-0.8c0.5-3.7,0.7-5.5,1.2-9.2c1.4-0.1,2.1-0.2,3.6-0.3c1.4-0.1,2.1-0.2,3.6-0.3c0.4,3.6,0.7,5.3,1.1,8.9
		C144.9,166.8,146.4,166.7,149.4,166.5 M134.6,151c0.9-7,1.8-14.1,2.7-21.1c0.9,6.9,1.7,13.9,2.6,20.8
		C137.7,150.8,136.7,150.9,134.6,151"/>
	<path class="st3" d="M194.7,164.5c-2.2-14.2-4.4-28.4-6.6-42.7h-12.3c0.2,1.1,0.3,1.6,0.5,2.7c-2.1,13.5-4.1,27.1-6.2,40.6
		c3-0.1,4.5-0.2,7.5-0.3c0.5-3.4,0.7-5.1,1.1-8.5c1.4,0,2.1-0.1,3.6-0.1c1.4,0,2.1,0,3.6-0.1c0.5,3.4,0.7,5.1,1.1,8.4
		C190.2,164.6,191.7,164.5,194.7,164.5 M179.8,149.2c0.9-6.6,1.8-13.1,2.6-19.7c0.9,6.5,1.7,13.1,2.6,19.6
		C183,149.1,181.9,149.1,179.8,149.2"/>
	<path class="st3" d="M164.6,121.9c-1.6,12-3.2,24.1-4.8,36.1c-1.6-12-3.1-24.1-4.6-36.1h-7.5c1.8,12.9,3.5,25.9,5.3,38.8
		c1.7,2.1,2.5,3.2,4.2,5.2c3.3-0.2,5-0.3,8.3-0.5c2.2-14.5,4.4-29,6.7-43.6h-7.6V121.9z"/>
	<path class="st3" d="M122.6,133.7c0-2,0-3,0-4.9c-2.6-2.7-3.9-4.1-6.6-6.9h-8c-2.6,2.9-4,4.3-6.6,7.3V172c2.6,2.5,3.9,3.8,6.6,6.2
		c3.2-0.5,4.8-0.8,8-1.2c2.6-3.2,3.9-4.8,6.6-7.8c0-5.6,0-8.3,0-13.9c-2.5,2.8-5.1,5.7-7.5,8.6c0,2.8,0,1.4,0,4.2
		c-0.4,0.4-0.6,0.7-0.9,1.1c-1.7,0.2-2.5,0.3-4.2,0.6c-0.4-0.4-0.6-0.5-0.9-0.9c0-12.6,0-25.2,0-37.8c0.4-0.4,0.6-0.6,0.9-1
		c1.7,0,2.5-0.1,4.2-0.1c0.4,0.4,0.6,0.6,0.9,1c0,3.7,0,7.4,0,11C117.6,139.2,120.1,136.4,122.6,133.7"/>
	<path class="st3" d="M298.3,142.6v-13.4c-2.6-3-4-4.4-6.6-7.3H286h-2.8c-2.6,2.8-3.9,4.2-6.6,6.9c0,1.6,0,2.4,0,3.9
		c0,4.1,0,6.2,0,10.3c4.8,4.3,9.5,8.6,14.1,13.1c0,4.3,0,8.5,0,12.8c-0.4,0.4-0.6,0.5-0.9,0.9c-1.9-0.3-2.8-0.4-4.7-0.6
		c-0.4-0.5-0.6-0.7-0.9-1.1c0-3.8,0-7.2,0-7.2l-7.5-5.6v13.9c0,0,4,4.6,6.6,7.8c2.3,0.3,3.4,0.5,5.6,0.9c1.1,0.2,1.7,0.3,2.8,0.5
		c2.6-2.4,3.9-3.7,6.6-6.2V168v-15.1c-4.6-4.5-9.3-8.9-14.1-13.3c0-3.4,0-5.1,0-8.5c0.4-0.4,0.6-0.6,0.9-1c1.9,0,2.8,0.1,4.7,0.1
		c0.4,0.4,0.6,0.6,0.9,1c0,3.5,0,5.9,0,5.9S295.3,140.3,298.3,142.6"/>
	<path class="st3" d="M196.6,121.9c0.4,0.9,0.6,1.3,0.9,2.2c0,4.9,0,9.8,0,14.7v2.7c0,7.7,0,15.4,0,23.1c5.8,0,11.6,0.1,17.5,0.2
		c0.6-2.8,0.8-4.3,1.4-7.1c-3.8-0.1-7.6-0.1-11.3-0.2c0-5.3,0-10.7,0-16c0-1.1,0-1.6,0-2.7c0-4.9,0-9.8,0-14.7
		c0.4-0.9,0.6-1.3,0.9-2.2C206,121.9,196.6,121.9,196.6,121.9z"/>
	<path class="st3" d="M249.5,95.9l-3.1-3.1h-7.1V114h7.3l2.9-2.9L249.5,95.9L249.5,95.9z M245.9,110.1l-0.4,0.4h-2.7V96.4h0.4h2.2
		l0.4,0.4v13.3H245.9z"/>
	<polygon class="st3" points="180.1,96.4 180.1,92.9 175.3,92.9 172,92.9 172.2,94.2 172.2,114 180.1,114 180.1,110.5 175.7,110.5 
		175.7,104.1 179.3,104.1 179.3,101 175.7,101 175.7,96.4 	"/>
	<polygon class="st3" points="203.1,114 203.1,110.5 198.7,110.5 198.7,104.1 202.2,104.1 202.2,101 198.7,101 198.7,96.4 
		203.1,96.4 203.1,92.9 198.2,92.9 194.9,92.9 195.2,94.2 195.2,114 	"/>
	<polygon class="st3" points="204.9,102.6 204.9,114 213,114 213.7,110.5 208.4,110.5 208.4,102.6 208.4,101.2 208.4,94.2 
		208.6,92.9 204.6,92.9 204.9,94.2 204.9,101.2 	"/>
	<polygon class="st3" points="161.8,102.6 161.8,114 170,114 170.6,110.5 165.3,110.5 165.3,102.6 165.3,101.2 165.3,94.2 
		165.5,92.9 161.6,92.9 161.8,94.2 161.8,101.2 	"/>
	<path class="st3" d="M218.9,109.9h1.7h1.7l0.5,4.2h3.5l-3.1-21.2h-5.7l0.2,1.3l-2.9,19.9h3.5L218.9,109.9z M220.6,96.6l1.2,9.7
		h-2.5L220.6,96.6z"/>
	<polygon class="st3" points="185.2,92.9 181.7,92.9 184.2,111.4 186.2,114 190.1,114 193.2,92.9 189.6,92.9 187.4,110.3 	"/>
	<polygon class="st3" points="231.2,102.6 231.2,102.6 234.5,114 234.5,114 237.8,114 237.8,92.9 234.2,92.9 234.3,103.7 
		230.9,92.9 227.4,92.9 227.6,94.2 227.6,114 231.2,114 	"/>
	<polygon class="st3" points="160.2,98.1 160.2,95.9 157.1,92.8 153.4,92.8 150.3,95.9 150.3,111 153.4,114 157.1,114 160.2,111 
		160.2,105.3 156.7,108.9 156.7,110.1 156.3,110.5 154.3,110.5 153.8,110.1 153.8,96.8 154.3,96.4 156.3,96.4 156.7,96.8 
		156.7,101.7 	"/>
</g>
</svg>
