<?xml version="1.0" encoding="utf-8"?>
<!-- Generator: Adobe Illustrator 16.0.3, SVG Export Plug-In . SVG Version: 6.00 Build 0)  -->
<!DOCTYPE svg PUBLIC "-//W3C//DTD SVG 1.1//EN" "http://www.w3.org/Graphics/SVG/1.1/DTD/svg11.dtd">
<svg version="1.1" id="Layer_1" xmlns="http://www.w3.org/2000/svg" xmlns:xlink="http://www.w3.org/1999/xlink" x="0px" y="0px"
	 width="400px" height="400px" viewBox="0 0 400 400" enable-background="new 0 0 400 400" xml:space="preserve">
<g>
	<g>
		<path fill="#EDE0C5" d="M201,372.648c-80.418,0-145.842-65.424-145.842-145.842c0-39.31,15.473-76.197,43.57-103.866
			c0.223-0.219,0.465-0.412,0.723-0.579c-9.69-14.6-15.114-31.676-10.993-52.359c7.592-38.098,38.381-49.583,39.688-50.054
			c0.502-0.181,1.016-0.267,1.524-0.267c1.622,0,3.168,0.879,3.971,2.38c0.504,0.945,0.64,1.998,0.448,2.984
			c10.076-8.47,19.665-12.185,23.706-13.481c0.455-0.146,0.918-0.215,1.375-0.215c1.724,0,3.351,0.995,4.098,2.638
			c0.946,2.078,0.186,4.536-1.77,5.717c-9.177,5.547-17.177,13.069-23.231,21.734c7.255-1.677,12.134-1.854,13.845-1.854
			c0.601,0,0.909,0.02,0.909,0.02c2.221,0.138,4.024,1.88,4.22,4.098c0.196,2.217-1.242,4.246-3.405,4.772
			c-0.115,0.028-12.162,3.078-25.465,12.622c-2.51,7.664-3.782,15.656-3.782,23.778c0,15.424,4.938,31.256,13.544,43.437
			c1.987,2.812,3.947,5.279,6.001,7.526c-0.757-15.9,3.919-40.487,32.456-51.937c0.547-0.22,1.116-0.325,1.674-0.325
			c1.658,0,3.242,0.92,4.026,2.486c1.05,2.094,0.318,4.642-1.681,5.861l-0.211,0.129c-4.32,2.808-7.965,6.423-10.771,10.611
			c2.996-0.898,5.579-1.205,7.332-1.413l0.34-0.041c0.181-0.022,0.361-0.033,0.54-0.033c1.884,0,3.596,1.183,4.24,2.995
			c0.705,1.983-0.06,4.19-1.839,5.314c0,0-0.271,0.171-0.333,0.208c-9.141,5.271-14.225,11.403-15.111,18.226
			c-0.961,7.396,3.086,14.376,6.043,18.36c7.651-8.913,12.631-24.032,14.028-29.749c0.497-2.034,2.32-3.432,4.369-3.432
			c0.175,0,0.351,0.01,0.529,0.03c2.257,0.265,3.963,2.171,3.977,4.444c0.114,18.676-4.882,31.458-10.025,39.648
			c7.661,3.848,15.144,4.072,16.768,4.072c0.185,0,0.447-0.007,0.505-0.007c0.061,0,0.127,0.001,0.192,0.004
			c0,0,0.149,0.003,0.334,0.003c1.624,0,9.107-0.224,16.769-4.072c-5.146-8.19-10.141-20.972-10.026-39.648
			c0.014-2.272,1.72-4.179,3.977-4.444c0.178-0.021,0.354-0.03,0.529-0.03c2.049,0,3.872,1.398,4.369,3.432
			c1.397,5.716,6.377,20.836,14.028,29.749c2.954-3.98,7.004-10.962,6.043-18.36c-0.887-6.822-5.971-12.955-15.111-18.226
			c-0.063-0.037-0.272-0.169-0.272-0.169c-1.778-1.123-2.572-3.351-1.868-5.333c0.646-1.813,2.335-3.014,4.216-3.014
			c0.177,0,0.353,0.01,0.532,0.032l0.341,0.041c1.753,0.208,4.336,0.514,7.333,1.413c-2.808-4.188-6.452-7.803-10.772-10.611
			l-0.212-0.129c-1.999-1.219-2.73-3.767-1.683-5.861c0.784-1.566,2.368-2.486,4.027-2.486c0.56,0,1.127,0.105,1.675,0.325
			c28.537,11.449,33.213,36.036,32.456,51.937c2.054-2.247,4.016-4.714,6.003-7.526c8.606-12.181,13.542-28.013,13.542-43.437
			c0-8.122-1.271-16.114-3.78-23.778c-13.392-9.61-25.344-12.592-25.467-12.621c-2.163-0.526-3.602-2.555-3.405-4.772
			c0.196-2.218,2-3.96,4.223-4.098c0,0,0.307-0.02,0.906-0.02c1.713,0,6.589,0.177,13.846,1.854
			c-6.055-8.666-14.055-16.187-23.231-21.734c-1.956-1.182-2.715-3.639-1.77-5.717c0.748-1.643,2.375-2.638,4.099-2.638
			c0.456,0,0.919,0.07,1.374,0.215c4.041,1.296,13.63,5.011,23.705,13.481c-0.191-0.986-0.057-2.039,0.45-2.984
			c0.801-1.501,2.349-2.38,3.972-2.38c0.506,0,1.021,0.086,1.523,0.267c1.306,0.47,32.096,11.956,39.688,50.054
			c4.119,20.683-1.303,37.759-10.995,52.359c0.26,0.167,0.5,0.359,0.726,0.578c28.095,27.669,43.568,64.557,43.568,103.866
			C346.842,307.225,281.418,372.648,201,372.648z"/>
	</g>
	<g>
		<path fill="#00471A" d="M300.113,126.148l-3.146,3.775c24.95,24.716,40.414,58.99,40.414,96.884
			c0,75.321-61.061,136.381-136.381,136.381c-75.321,0-136.381-61.06-136.381-136.381c0-37.895,15.46-72.171,40.411-96.886
			l-3.143-3.772C75.839,151.8,59.66,187.446,59.66,226.807c0,77.936,63.405,141.339,141.34,141.339s141.34-63.403,141.34-141.339
			C342.34,187.446,326.161,151.8,300.113,126.148z M112.14,136.674c-22.894,22.898-37.602,55.271-37.602,90.132
			c0,8.055,0.766,15.933,2.212,23.571l38.135-10.297c6.302,41.573,42.28,73.538,85.585,73.538c43.468,0,79.549-32.205,85.651-74.007
			l39.129,10.764c1.445-7.639,2.212-15.516,2.212-23.569c0-34.861-14.475-66.798-37.369-89.696l3.35-3.619
			c24.146,23.842,38.978,56.782,38.978,93.315c0,72.466-58.956,131.422-131.421,131.422c-72.466,0-131.422-58.956-131.422-131.422
			c0-36.533,14.989-69.628,39.134-93.47L112.14,136.674z M92.874,70.882c7.182-36.041,36.797-46.697,36.797-46.697
			c-10.843,8.012-21.912,23.074-26.486,44.225c4.453-5.526,8.582-9.673,13.433-12.977c12.008-25.868,32.499-36.356,42.552-39.581
			c-13.041,7.883-23.947,19.617-30.576,33.131c15.08-5.384,24.178-4.882,24.178-4.882s-13.479,3.276-28.21,14.2
			c-2.894,8.324-4.476,17.263-4.476,26.573c0,16.378,5.276,33.167,14.369,46.035c5.117,7.241,10.058,12.248,16.209,16.808
			c-2.034-5.118-9.777-44.641,27.602-59.639l-0.266,0.161c-8.829,5.72-15.333,14.628-17.977,25.108
			c6.826-6.534,14.028-7.214,17.811-7.669c-0.058,0.037-0.119,0.078-0.178,0.115c-34.699,20.011-7.108,47.118-7.108,47.118
			c10.941-9.169,17.318-29.697,18.692-35.311c0.133,21.691-7.082,34.68-11.984,41.028c11.184,7.674,23.728,7.16,23.733,7.16H201
			h0.011c0.005,0,12.548,0.514,23.733-7.16c-4.903-6.348-12.117-19.336-11.984-41.028c1.372,5.614,7.75,26.142,18.69,35.311
			c0,0,27.593-27.107-7.107-47.118c-0.06-0.037-0.121-0.078-0.179-0.115c3.784,0.455,10.985,1.135,17.812,7.669
			c-2.644-10.479-9.148-19.388-17.978-25.108l-0.265-0.161c37.379,14.998,29.636,54.521,27.602,59.639
			c6.15-4.56,11.092-9.567,16.21-16.808c9.092-12.868,14.367-29.657,14.367-46.035c0-9.31-1.581-18.249-4.476-26.573
			c-14.73-10.924-28.21-14.2-28.21-14.2s9.099-0.501,24.179,4.882c-6.628-13.515-17.534-25.248-30.575-33.131
			c10.054,3.224,30.545,13.713,42.551,39.581c4.853,3.304,8.981,7.45,13.433,12.977c-4.572-21.151-15.64-36.212-26.484-44.225
			c0,0,29.615,10.656,36.796,46.697c8.359,41.948-25.143,68.143-52.156,90.584l20.623-8.411c1.397-0.593,2.365,0.754,2.108,2.361
			l-0.604,5.093c-0.334,2.802-2.39,16.994-10.185,21.297c-1.685,0.931-4.588,1.996-13.141,2.628l-15.482,0.996l2.571,8.706
			l-15.199,24.344l7.786-8.204l15.889,56.515l-43.599,35.872l13.604-61.71L201,265.697l-20.341-24.743l13.605,61.71l-43.599-35.872
			l15.889-56.515l7.785,8.204l-15.198-24.344l2.571-8.706l-15.482-0.996c-8.552-0.633-11.457-1.697-13.142-2.628
			c-7.792-4.303-9.851-18.496-10.184-21.297l-0.604-5.093c-0.257-1.607,0.711-2.954,2.108-2.361l20.624,8.411
			C118.018,139.025,84.516,112.83,92.874,70.882z M288.342,115.959c0,0,17.074-26.995,5.418-42.081
			c-1.197-1.547-2.491-2.962-3.765-4.339C294.778,86.796,288.342,115.959,288.342,115.959z M113.658,115.959
			c0,0-6.436-29.163-1.651-46.42c-1.275,1.377-2.569,2.792-3.765,4.339C96.583,88.965,113.658,115.959,113.658,115.959z"/>
		<path fill="#FFFFFF" d="M156.058,311.297l0.866-1.357l0.082-0.129l-13.002-8.258l-0.062,0.097l-16.418,25.711l3.982,2.542
			l7.22-11.305l5.017,3.205l-7.219,11.304l3.982,2.543l13.881-21.737L156.058,311.297z M146.361,317.7l-5.017-3.204l4.022-6.298
			l5.038,3.171L146.361,317.7z M141.739,299.837l-23.447,19.931l-3.231-3.189l5.653-8.528l-8.433,5.784l-3.229-3.188l19.634-23.698
			l3.151,3.111l-7.933,9.994l10.766-7.197l1.085,1.071l-7.059,10.856l9.866-8.086L141.739,299.837z M118.646,271.403l-27.191,14.163
			l-2.2-4.224l27.191-14.162L118.646,271.403z M114.363,263.201l-28.995,9.962l-1.547-4.505l18.194-6.25l-8.397-0.263l6.462-5.367
			l-18.194,6.251l-1.547-4.505l28.995-9.961l1.547,4.504l-6.463,5.368l8.397,0.262L114.363,263.201z M102.594,294.38l5.849,8.169
			l-3.988,2.856l-8.622-12.041l24.926-17.852l2.772,3.874L102.594,294.38z M173.938,316.834l-10.953,28.472l-3.089-1.19
			l-8.161-3.139l-3.334-1.282l11.127-28.404l4.445,1.71l-9.205,23.929l5.556,2.138l9.206-23.929L173.938,316.834z M299.668,296.21
			l2.667,2.126l-7.496,9.395l-2.112,2.646l-21.117-16.852l-2.726-2.175l9.607-12.039l2.726,2.175l4.553,3.633l-2.947,3.692
			l-3.444-2.748l-3.713,4.654l16.205,12.931l3.713-4.653l-3.473-2.774l2.945-3.692L299.668,296.21z M294.644,275.237l19.495,2.583
			l-2.336,4.404l-14.187-1.792l11.817,6.262l-2.229,4.21l-27.09-14.355l2.229-4.21l7.518,3.983l-5.602-7.599l2.354-4.438
			L294.644,275.237z M321.66,256.364l-4.422,14.755l-3.267-0.979l-4.919-1.475l1.355-4.527l3.524,1.056l1.709-5.701l-8.15-2.442
			l-3.137,10.207l-3.275-0.982l-13.062-3.913l0.973-3.245l3.45-11.511l3.313,0.992l4.836,1.451l-1.356,4.526l-3.488-1.045
			l-1.707,5.702l7.048,2.111l3.102-10.217l3.269,0.979l10.937,3.279L321.66,256.364z M266.352,293.963l19.651,23.332l-2.534,2.133
			l-6.687,5.631l-2.732,2.303l-19.507-23.453l3.642-3.067l16.516,19.608l4.553-3.834l-16.514-19.61L266.352,293.963z
			 M231.517,342.437l0.937,4.775l-14.457,2.839l-5.878-29.934l14.457-2.839l0.938,4.775l-9.821,1.929l1.418,7.22l9.821-1.929
			l0.931,4.738l-9.821,1.929l1.654,8.424L231.517,342.437z M209.121,345.967l0.081,4.867l-14.732,0.244l-0.504-30.502l14.732-0.243
			l0.081,4.867l-10.008,0.165l0.122,7.357l10.008-0.166l0.08,4.828l-10.009,0.166l0.143,8.583L209.121,345.967z M257.137,320.428
			l0.507-3.004l-4.652-8.594l-4.408-1.246l-10.577,5.707l14.506,26.802l10.577-5.707l1.32-4.46l-4.505-8.322L257.137,320.428z
			 M244.386,315.39l5.266-2.835l3.479,6.471l-5.264,2.831L244.386,315.39z M254.211,333.641l-4.063-7.546l5.269-2.816l4.059,7.548
			L254.211,333.641z M190.874,320.023l-7.941,11.018l3.556,19.341l-4.911-0.863l-2.671-14.048l-2.313,13.174l-4.69-0.825
			l5.301-30.196l4.691,0.823l-1.472,8.382l5.503-7.673L190.874,320.023z"/>
		<g>
			<path fill="#FFFFFF" d="M186.843,184.462c-2.212-1.015-6.38-2.929-10.531-4.833c-0.83-0.381-1.787,0.136-1.934,1.038
				c-0.294,1.794-0.251,4.604,2.205,6.5c4.627,3.573,8.55,1.583,10.656-0.481C187.924,186.014,187.715,184.863,186.843,184.462z"/>
			<path fill="#FFFFFF" d="M129.671,160.416c0,0,1.506,12.655,6.814,15.587c3.583,1.979,12.341,1.789,19.988,2.376
				c-8.469-3.285-20.942-12.249-26.799-17.963L129.671,160.416z"/>
			<polygon fill="#FFFFFF" points="192.161,236.087 196.406,241.848 205.595,241.848 209.839,236.087 			"/>
			<path fill="#FFFFFF" d="M272.328,160.416c-5.858,5.714-18.333,14.678-26.802,17.963c7.647-0.587,16.404-0.397,19.988-2.376
				C270.822,173.071,272.329,160.416,272.328,160.416L272.328,160.416z"/>
			<path fill="#FFFFFF" d="M209.801,202.674l-4.079-13.37L201,191.595l-4.721-2.292l-4.08,13.37c0,0-1.355,5.309-7.209,9.049
				l-2.493,10.989l6.132,8.275h6.51l-6.029-8.865l0.952-5.476c2.737,2.92,6.623,4.751,10.938,4.761
				c4.317-0.01,8.202-1.841,10.939-4.761l0.951,5.476l-6.029,8.865h6.51l6.132-8.275l-2.491-10.989
				C211.156,207.982,209.801,202.674,209.801,202.674z"/>
			<path fill="#FFFFFF" d="M225.689,179.629c-4.152,1.905-8.32,3.819-10.531,4.833c-0.874,0.4-1.083,1.551-0.396,2.224
				c2.105,2.064,6.028,4.055,10.655,0.481c2.457-1.896,2.499-4.707,2.205-6.5C227.475,179.765,226.519,179.248,225.689,179.629z"/>
		</g>
	</g>
</g>
</svg>
